<svg id="Layer_1" data-name="Layer 1" xmlns="http://www.w3.org/2000/svg" viewBox="0 0 100 81.87"><defs><style>.cls-1{fill:#fff;}</style></defs><title>Car</title><path d="M16,29.87H84a16,16,0,0,1,16,16v18a0,0,0,0,1,0,0H0a0,0,0,0,1,0,0v-18a16,16,0,0,1,16-16Z"/><path d="M9,63.87H23a0,0,0,0,1,0,0v14a4,4,0,0,1-4,4H13a4,4,0,0,1-4-4v-14A0,0,0,0,1,9,63.87Z"/><path d="M77,63.87H91a0,0,0,0,1,0,0v14a4,4,0,0,1-4,4H81a4,4,0,0,1-4-4v-14A0,0,0,0,1,77,63.87Z"/><rect class="cls-1" x="9" y="36" width="14" height="14" rx="7"/><rect class="cls-1" x="77" y="36" width="14" height="14" rx="7"/><path d="M78.53,17.57c-3.23-6.81-6.25-8.51-14.07-8.51H35.54c-7.82,0-10.84,1.7-14.07,8.51L11.6,41.06H88.4Z" transform="translate(0 -9.06)"/><path class="cls-1" d="M73.18,22c-2.62-5.54-5.07-6.92-11.43-6.92H38.25c-6.36,0-8.81,1.38-11.43,6.92l-8,19.08H81.2Z" transform="translate(0 -9.06)"/></svg>