<svg id="Layer_1" data-name="Layer 1" xmlns="http://www.w3.org/2000/svg" viewBox="0 0 1000 1000"><path d="M2,454.78Q0,477.13,0,500a502.5,502.5,0,0,0,6.26,79.25A324.88,324.88,0,0,1,100,565.5c179.49,0,325,145.51,325,325a324.67,324.67,0,0,1-16.09,101.21,504.8,504.8,0,0,0,182.49-.05A324.67,324.67,0,0,1,575,889.5c0-179.49,145.51-325,325-325a325.25,325.25,0,0,1,93.9,13.79A503.84,503.84,0,0,0,1000,500q0-22.86-2-45.22a1811.79,1811.79,0,0,0-996,0Z"/><path d="M500,0C223.86,0,0,223.86,0,500s223.86,500,500,500,500-223.86,500-500S776.14,0,500,0Zm0,900.5c-220.91,0-400-179.09-400-400s179.09-400,400-400,400,179.09,400,400S720.91,900.5,500,900.5Z"/></svg>